<svg xmlns="http://www.w3.org/2000/svg" viewBox="0 0 203.61 65.94"><defs><style>.cls-1{fill:#fff;}</style></defs><title>Asset 1</title><g id="Layer_2" data-name="Layer 2"><g id="Layer_1-2" data-name="Layer 1"><path class="cls-1" d="M9.67,12.27l-2-1.1A13.48,13.48,0,0,1,5.47,9.84,3.23,3.23,0,0,1,4,7.37,3.51,3.51,0,0,1,5.17,4.68,4.12,4.12,0,0,1,8.09,3.6q3.66,0,5.27,2.24l.42,0V1.16H13.3a1.05,1.05,0,0,1-.25.16,1,1,0,0,1-.4.05L10.21.78A10.72,10.72,0,0,0,7.76.49,7.75,7.75,0,0,0,2.39,2.43,6.2,6.2,0,0,0,.22,7.27a6.74,6.74,0,0,0,1.23,4A9.57,9.57,0,0,0,4.72,14l1.8,1a26.11,26.11,0,0,1,2.29,1.4A5.28,5.28,0,0,1,10.33,18a4.08,4.08,0,0,1,.51,2.1,4,4,0,0,1-1.17,3A5.27,5.27,0,0,1,6.3,24.46H5.82a7.09,7.09,0,0,1-2.76-.58A6.61,6.61,0,0,1,.65,22.23l-.32-.35H0l.37,4.66a18.29,18.29,0,0,0,2.86.89,14.07,14.07,0,0,0,2.87.27A9.89,9.89,0,0,0,12,26a6.9,6.9,0,0,0,2.91-6,7.58,7.58,0,0,0-1.26-4.43A11,11,0,0,0,9.67,12.27Z"/><path class="cls-1" d="M37.12,22.55A8.82,8.82,0,0,1,34,24.16a13.19,13.19,0,0,1-3.53.38,8.31,8.31,0,0,1-7-3.24A11.62,11.62,0,0,1,21.28,14a11.62,11.62,0,0,1,1.34-5.78,9.61,9.61,0,0,1,4.27-4,6.07,6.07,0,0,1,1.61-.5,11,11,0,0,1,2-.16,14.81,14.81,0,0,1,3.74.48,7.29,7.29,0,0,1,2.81,1.27l.55.56H38V1h-.43c-.11.26-.36.38-.75.38l-.41,0c-.19,0-1.16-.22-2.9-.58a16.59,16.59,0,0,0-3.42-.4,12.23,12.23,0,0,0-9.59,4.05A13.71,13.71,0,0,0,17.07,14a13.82,13.82,0,0,0,3.61,9.72,12.7,12.7,0,0,0,9.79,4.11,23.11,23.11,0,0,0,3.25-.19,16,16,0,0,0,3-.77l1.08-.38.4-4.47h-.42Z"/><path class="cls-1" d="M61.72,26a4.7,4.7,0,0,1-1-1c-.27-.39-.53-.78-.78-1.16l-6.19-8.78a7.18,7.18,0,0,0,3.71-1.91,6.13,6.13,0,0,0,2.09-4.66,6,6,0,0,0,0-.83Q59.08,4,56.7,2.56c-1.6-1-4.34-1.46-8.21-1.46H40.34l0,.36a2.22,2.22,0,0,1,1,.35,1.72,1.72,0,0,1,.62.8,7.85,7.85,0,0,1,.45,1.81c0,.31,0,.86,0,1.65v16.1a17.36,17.36,0,0,1-.1,2A4.21,4.21,0,0,1,42,25.55a1.76,1.76,0,0,1-.57.7,2.18,2.18,0,0,1-.79.31v.35h7.92v-.35l-.65-.25a1.65,1.65,0,0,1-.7-.66,6.06,6.06,0,0,1-.67-2.36q-.06-.69-.06-2.43V4.16l.91-.22a9,9,0,0,1,2.06-.23,7.44,7.44,0,0,1,4.13,1.08,3.85,3.85,0,0,1,1.87,3.39,4.19,4.19,0,0,1-1.74,3.51A7.18,7.18,0,0,1,49.32,13L48,12.88v.48l5.93,9c.55.84.91,1.4,1.09,1.66.41.62.74,1.09,1,1.4a9.07,9.07,0,0,0,1.08,1.13,2.43,2.43,0,0,0,1,.48,6.35,6.35,0,0,0,1.4.13c.39,0,1.12-.05,2.2-.15.47,0,.83-.06,1.06-.06v-.37c-.24-.09-.44-.16-.58-.23A2.21,2.21,0,0,1,61.72,26Z"/><path class="cls-1" d="M80.75,22.72a2.23,2.23,0,0,1-.81.73,6.66,6.66,0,0,1-1.58.53,11.3,11.3,0,0,1-1.83.12H73.35A5.57,5.57,0,0,1,72.06,24a1.56,1.56,0,0,1-.82-.43A1.51,1.51,0,0,1,71,22.9a4.6,4.6,0,0,1-.12-1.13l0-6.93h4.69a14.49,14.49,0,0,1,1.45.07,7.34,7.34,0,0,1,1.26.24,3,3,0,0,1,1.15.62,1.29,1.29,0,0,1,.5.94h.34v-7h-.34a2.29,2.29,0,0,1-.45.88,2.71,2.71,0,0,1-.78.61,4.15,4.15,0,0,1-1.7.52H70.79V4.37h6.83a4,4,0,0,1,1.85.4,2,2,0,0,1,1.06,1.1h.39V1.31h-16v.37a1.19,1.19,0,0,1,.88.34,2.17,2.17,0,0,1,.69,1.1,7.84,7.84,0,0,1,.27,1.46c0,.51.07,1.22.07,2.16V23.57a10.24,10.24,0,0,1,0,1.11A3.45,3.45,0,0,1,66.38,26a1.66,1.66,0,0,1-.55.59,2.06,2.06,0,0,1-.76.25v.35H80.88l.68-5.22h-.41A1.64,1.64,0,0,1,80.75,22.72Z"/><path class="cls-1" d="M113.56,1.79a3.58,3.58,0,0,1,.71.28.69.69,0,0,1,.32.37,1.35,1.35,0,0,1,.1.53,4.61,4.61,0,0,1-.16,1.09c-.11.44-.32,1.1-.65,2l-4.7,12.55L102.2.4h-.34L94.94,18.64,90.06,6a13.3,13.3,0,0,1-.55-1.74,7,7,0,0,1-.17-1.56c.06-.58.43-.88,1.12-.88V1.43H83.24v.36a1.57,1.57,0,0,1,.86.47,3.19,3.19,0,0,1,.79,1c.29.6.51,1.08.66,1.45s.4,1,.88,2.32L94.6,28.42h.48L102,10l7,18.31h.46L118,5.15c.09-.25.21-.6.37-1a7.6,7.6,0,0,1,.44-1,3.36,3.36,0,0,1,.71-.91,1.59,1.59,0,0,1,.79-.44V1.43h-6.7Z"/><path class="cls-1" d="M131.13,4.37l1.76,0c1,0,1.65,0,2.05,0a3.48,3.48,0,0,1,1.68.37,1.89,1.89,0,0,1,.93,1.06h.35V1.31H122.24v.37a1.32,1.32,0,0,1,.89.34,2.1,2.1,0,0,1,.68,1.06,8.38,8.38,0,0,1,.3,1.62q.09.91.09,2.1V23.65a6.11,6.11,0,0,1-.12,1.2,3.21,3.21,0,0,1-.45,1.15,1.37,1.37,0,0,1-.56.58,2.44,2.44,0,0,1-.75.21v.35h7.9v-.34a3.82,3.82,0,0,1-.65-.25,2.85,2.85,0,0,1-.74-.64,4.56,4.56,0,0,1-.54-2.28c-.09-1.2-.13-2.7-.13-4.5V14.84h4.7a10.84,10.84,0,0,1,1.47.09,5.52,5.52,0,0,1,1.23.29,2.59,2.59,0,0,1,1,.63,1.29,1.29,0,0,1,.41.89h.35V9.89H137a1.49,1.49,0,0,1-.34.71,2.28,2.28,0,0,1-.72.59,4.86,4.86,0,0,1-1.29.49,9.06,9.06,0,0,1-1.53.1h-5V4.37Z"/><path class="cls-1" d="M163.51,26.11a6.21,6.21,0,0,1-1-1.47c-.3-.53-.7-1.33-1.2-2.39l-1.21-2.67L151.26,0h-.46L142,19.87c-.32.75-.72,1.72-1.2,2.9-.43,1-.9,2-1.42,3a2,2,0,0,1-.59.7,2.8,2.8,0,0,1-1,.36v.35h6.93v-.35a2.89,2.89,0,0,1-.65-.23.68.68,0,0,1-.25-.4,1.87,1.87,0,0,1,0-.37,4,4,0,0,1,.24-1.14c.09-.26.25-.7.49-1.32L145.93,20h10.14l1.47,3.47A11,11,0,0,1,158,24.8a3.39,3.39,0,0,1,.11.78,1.4,1.4,0,0,1-.06.43,1.15,1.15,0,0,1-.41.52,2,2,0,0,1-.66.26v.35h7.6v-.35a5.67,5.67,0,0,1-.58-.3A3.31,3.31,0,0,1,163.51,26.11Zm-16.4-9.26L151,7.27,155,16.85Z"/><path class="cls-1" d="M183.55,22.55a8.82,8.82,0,0,1-3.11,1.61,13.24,13.24,0,0,1-3.53.38,8.3,8.3,0,0,1-7-3.24A11.63,11.63,0,0,1,167.7,14a11.63,11.63,0,0,1,1.35-5.78,9.56,9.56,0,0,1,4.27-4,6,6,0,0,1,1.61-.5,11,11,0,0,1,2-.16,14.81,14.81,0,0,1,3.74.48,7.29,7.29,0,0,1,2.81,1.27l.55.56h.38V1H184c-.11.26-.36.38-.75.38l-.42,0c-.18,0-1.15-.22-2.89-.58a16.59,16.59,0,0,0-3.42-.4,12.23,12.23,0,0,0-9.59,4.05A13.67,13.67,0,0,0,163.5,14a13.82,13.82,0,0,0,3.61,9.72,12.7,12.7,0,0,0,9.79,4.11,23.21,23.21,0,0,0,3.25-.19,16,16,0,0,0,3-.77l1.08-.38.4-4.47h-.42Z"/><path class="cls-1" d="M203.19,21.92a1.64,1.64,0,0,1-.4.8,2.08,2.08,0,0,1-.81.73,6.75,6.75,0,0,1-1.57.53,11.43,11.43,0,0,1-1.84.12H195.4a5.51,5.51,0,0,1-1.29-.13,1.59,1.59,0,0,1-.83-.43,1.83,1.83,0,0,1-.26-.64,4.6,4.6,0,0,1-.12-1.13V14.84h4.68c.57,0,1.05,0,1.46.07a7.42,7.42,0,0,1,1.25.24,2.86,2.86,0,0,1,1.15.62,1.29,1.29,0,0,1,.5.94h.35v-7h-.35a2.29,2.29,0,0,1-.45.88,2.71,2.71,0,0,1-.78.61,4.11,4.11,0,0,1-1.7.52h-6.16V4.37h6.83a4,4,0,0,1,1.84.4,2,2,0,0,1,1.07,1.1H203V1.31H187v.37a1.21,1.21,0,0,1,.89.34,2.23,2.23,0,0,1,.68,1.1,7.1,7.1,0,0,1,.27,1.46c.05.51.07,1.22.07,2.16V23.57a10.24,10.24,0,0,1,0,1.11,3.65,3.65,0,0,1-.4,1.27,1.68,1.68,0,0,1-.56.59,2.07,2.07,0,0,1-.75.25v.35h15.81l.68-5.22Z"/><path class="cls-1" d="M42.9,64.14a5,5,0,0,1-1-1L41.13,62,35,53.19a7.22,7.22,0,0,0,3.71-1.91,6.16,6.16,0,0,0,2.09-4.66,8.19,8.19,0,0,0,0-.83q-.44-3.63-2.82-5.1c-1.6-1-4.34-1.46-8.22-1.46H21.52l0,.36a2.22,2.22,0,0,1,1,.35,1.64,1.64,0,0,1,.61.8,7,7,0,0,1,.45,1.81,15.88,15.88,0,0,1,.05,1.65V60.3a20.12,20.12,0,0,1-.09,2,4.21,4.21,0,0,1-.31,1.36,1.7,1.7,0,0,1-.58.7,2.06,2.06,0,0,1-.78.31V65h7.91v-.35l-.64-.25a1.6,1.6,0,0,1-.7-.66,5.89,5.89,0,0,1-.67-2.36q-.06-.69-.06-2.43V42.29l.91-.22a8.91,8.91,0,0,1,2.06-.23,7.39,7.39,0,0,1,4.12,1.08,3.83,3.83,0,0,1,1.88,3.39,4.19,4.19,0,0,1-1.74,3.51,7.2,7.2,0,0,1-4.42,1.26L29.2,51v.48l5.93,9,1.08,1.66c.41.62.75,1.09,1,1.4a9.07,9.07,0,0,0,1.08,1.13,2.37,2.37,0,0,0,1,.48,6.35,6.35,0,0,0,1.4.13c.39,0,1.12,0,2.2-.15.47,0,.83-.06,1.06-.06v-.37c-.24-.09-.44-.16-.58-.23A2,2,0,0,1,42.9,64.14Z"/><path class="cls-1" d="M61.66,60.74a2.07,2.07,0,0,1-.81.73,6.75,6.75,0,0,1-1.57.53,11.52,11.52,0,0,1-1.84.12H54.26A5.48,5.48,0,0,1,53,62a1.56,1.56,0,0,1-.83-.43,1.45,1.45,0,0,1-.26-.64,4.55,4.55,0,0,1-.12-1.13l0-6.92h4.69c.57,0,1.05,0,1.46.06a10.14,10.14,0,0,1,1.25.24,2.82,2.82,0,0,1,1.15.63,1.28,1.28,0,0,1,.5.93h.35V47.78H60.8a2.29,2.29,0,0,1-.45.88,2.92,2.92,0,0,1-.78.62,4.09,4.09,0,0,1-1.7.51c-.14,0-.52,0-1.13,0h-5V42.39h6.84a4.15,4.15,0,0,1,1.84.4,2,2,0,0,1,1.07,1.1h.38V39.34h-16v.36a1.23,1.23,0,0,1,.89.34,2.23,2.23,0,0,1,.68,1.1,7.1,7.1,0,0,1,.27,1.46c0,.51.07,1.23.07,2.16V61.59a10.11,10.11,0,0,1,0,1.11A3.65,3.65,0,0,1,47.3,64a1.77,1.77,0,0,1-.56.59,2.08,2.08,0,0,1-.75.26v.35h15.8L62.48,60h-.42A1.66,1.66,0,0,1,61.66,60.74Z"/><path class="cls-1" d="M84.72,60.7a9,9,0,0,1-3.11,1.62,13.67,13.67,0,0,1-3.53.38,8.3,8.3,0,0,1-7-3.24,11.65,11.65,0,0,1-2.22-7.31,11.65,11.65,0,0,1,1.34-5.78,9.59,9.59,0,0,1,4.27-3.95,6.33,6.33,0,0,1,1.61-.51,12,12,0,0,1,2-.16,14.39,14.39,0,0,1,3.74.49,7.45,7.45,0,0,1,2.81,1.26l.55.56h.38V39.19h-.43a.72.72,0,0,1-.75.39,2.82,2.82,0,0,1-.42,0c-.18,0-1.15-.21-2.89-.58a17.31,17.31,0,0,0-3.42-.4,12.21,12.21,0,0,0-9.59,4.06,13.67,13.67,0,0,0-3.41,9.48,13.78,13.78,0,0,0,3.61,9.72,12.67,12.67,0,0,0,9.79,4.12,23.21,23.21,0,0,0,3.25-.19,17.73,17.73,0,0,0,3-.77l1.08-.38.4-4.48h-.42Z"/><path class="cls-1" d="M101.47,38.64a14.11,14.11,0,0,0-7.4,1.94A12.77,12.77,0,0,0,89.4,45.5,13.61,13.61,0,0,0,87.79,52a14.94,14.94,0,0,0,1.55,6.75,12.3,12.3,0,0,0,4.57,5.1,14,14,0,0,0,7.56,2q6.45,0,10.16-4.23A14.48,14.48,0,0,0,115,51.75a12.5,12.5,0,0,0-3.88-9.36A13.34,13.34,0,0,0,101.47,38.64Zm7.28,20.66a9.6,9.6,0,0,1-14.54.08A11.33,11.33,0,0,1,91.81,52a10.36,10.36,0,0,1,2.58-7.1,9,9,0,0,1,7.08-3.1,9.42,9.42,0,0,1,7,2.71,9.82,9.82,0,0,1,2.67,7.19A11.87,11.87,0,0,1,108.75,59.3Z"/><path class="cls-1" d="M138.79,64.14a4.7,4.7,0,0,1-1-1c-.27-.39-.53-.78-.78-1.16l-6.19-8.78a7.18,7.18,0,0,0,3.71-1.91,6.16,6.16,0,0,0,2.09-4.66,6,6,0,0,0,0-.83q-.43-3.63-2.82-5.1c-1.6-1-4.34-1.46-8.21-1.46h-8.15l0,.36a2.22,2.22,0,0,1,1,.35,1.72,1.72,0,0,1,.62.8,7.85,7.85,0,0,1,.45,1.81c0,.31.05.86.05,1.65V60.3a19.89,19.89,0,0,1-.1,2,4.21,4.21,0,0,1-.31,1.36,1.76,1.76,0,0,1-.57.7,2.18,2.18,0,0,1-.79.31V65h7.92v-.35l-.65-.25a1.65,1.65,0,0,1-.7-.66,6.06,6.06,0,0,1-.67-2.36q-.06-.69-.06-2.43V42.29l.91-.22a9,9,0,0,1,2.06-.23,7.44,7.44,0,0,1,4.13,1.08,3.85,3.85,0,0,1,1.87,3.39,4.19,4.19,0,0,1-1.74,3.51,7.18,7.18,0,0,1-4.42,1.26l-1.3-.07v.48l5.93,9c.55.84.91,1.4,1.09,1.66.41.62.74,1.09,1,1.4a9.07,9.07,0,0,0,1.08,1.13,2.43,2.43,0,0,0,1,.48,6.35,6.35,0,0,0,1.4.13c.39,0,1.12,0,2.2-.15.47,0,.83-.06,1.06-.06v-.37c-.24-.09-.44-.16-.58-.23A2.21,2.21,0,0,1,138.79,64.14Z"/><path class="cls-1" d="M157.24,40.23a20.82,20.82,0,0,0-6.35-.89h-9v.36a2.06,2.06,0,0,1,.89.44,2.32,2.32,0,0,1,.67.88,5.66,5.66,0,0,1,.42,1.54,19.11,19.11,0,0,1,.1,2.06V61.47a6.83,6.83,0,0,1-.09,1.2,3.12,3.12,0,0,1-.48,1.27,2,2,0,0,1-1.33.88v.35h8.53a18.75,18.75,0,0,0,7.28-1.3,11,11,0,0,0,5.25-4.41,15.68,15.68,0,0,0,2-8.32,11.19,11.19,0,0,0-2.36-7.38A11.48,11.48,0,0,0,157.24,40.23Zm2.27,17.83A8.19,8.19,0,0,1,156,61.21a9.56,9.56,0,0,1-4.13.9,7.86,7.86,0,0,1-2-.24,4.94,4.94,0,0,1-1.51-.61,5.23,5.23,0,0,1-.39-2.4c-.08-1.47-.12-3.43-.12-5.87,0-1.27,0-2.67,0-4.18s0-2.93.07-4.23,0-2.08,0-2.32a14.84,14.84,0,0,1,2.76-.25,10.81,10.81,0,0,1,7.08,2.25Q161,46.9,161,52.06A11.18,11.18,0,0,1,159.51,58.06Z"/><path class="cls-1" d="M180.83,53.7a11,11,0,0,0-4-3.28l-2-1.09A14.25,14.25,0,0,1,172.63,48a3.25,3.25,0,0,1-1.46-2.48,3.51,3.51,0,0,1,1.16-2.69,4.14,4.14,0,0,1,2.93-1.08c2.43,0,4.19.75,5.26,2.25h.42v-4.7h-.48a1.84,1.84,0,0,1-.25.17,1.3,1.3,0,0,1-.4.05l-2.44-.59a10.19,10.19,0,0,0-2.45-.29,7.75,7.75,0,0,0-5.37,1.93,6.22,6.22,0,0,0-2.17,4.85,6.71,6.71,0,0,0,1.23,4,9.59,9.59,0,0,0,3.27,2.75l1.8,1c1.09.62,1.86,1.09,2.29,1.4a5.39,5.39,0,0,1,1.52,1.59,4.08,4.08,0,0,1,.51,2.1,4,4,0,0,1-1.17,3,5.32,5.32,0,0,1-3.37,1.34H173a7.26,7.26,0,0,1-2.76-.57,6.51,6.51,0,0,1-2.41-1.66l-.32-.34h-.33l.37,4.66a19.29,19.29,0,0,0,2.86.88,14,14,0,0,0,2.87.28,10,10,0,0,0,5.92-1.73,6.92,6.92,0,0,0,2.91-6A7.61,7.61,0,0,0,180.83,53.7Z"/></g></g></svg>