<svg xmlns="http://www.w3.org/2000/svg" viewBox="0 0 12.21 12.21"><defs><style>.cls-1{fill:#fff;}</style></defs><title>Asset 3</title><g id="Layer_2" data-name="Layer 2"><g id="Layer_1-2" data-name="Layer 1"><path class="cls-1" d="M8.16,2.82a.2.2,0,0,0-.23-.2l-.26,0-.82.16L5.93,3,5,3.2l-.32.06a.29.29,0,0,0-.22.21.76.76,0,0,0,0,.15c0,1.2,0,2.4,0,3.61v.06a.27.27,0,0,1-.24.29l-.35.07a2.5,2.5,0,0,0-.45.12A.76.76,0,0,0,3,8.62a.73.73,0,0,0,.77.62,1.62,1.62,0,0,0,.44-.07.86.86,0,0,0,.58-.5,1.23,1.23,0,0,0,.09-.5V5A.19.19,0,0,1,5,4.76H5l.55-.11,1-.19.92-.19.2,0c.06,0,.1,0,.12.09a.22.22,0,0,1,0,.08v2.2a.19.19,0,0,1,0,.08.23.23,0,0,1-.2.21L7.12,7a1.87,1.87,0,0,0-.42.13.76.76,0,0,0,.37,1.44A1.55,1.55,0,0,0,7.5,8.5.85.85,0,0,0,8.07,8a1.16,1.16,0,0,0,.09-.49c0-.77,0-1.54,0-2.32s0-1.55,0-2.32Z"/><path class="cls-1" d="M6.11,0a6.11,6.11,0,1,0,6.1,6.11A6.1,6.1,0,0,0,6.11,0Zm0,11.71a5.61,5.61,0,1,1,5.6-5.6A5.61,5.61,0,0,1,6.11,11.71Z"/></g></g></svg>