<svg xmlns="http://www.w3.org/2000/svg" viewBox="0 0 867.35 453.09"><defs><style>.cls-1{fill:#fff;}</style></defs><title>Asset 9</title><g id="Layer_2" data-name="Layer 2"><g id="Layer_1-2" data-name="Layer 1"><path id="path59" class="cls-1" d="M708.3,257.06V238.57H867.35v37H708.3V257.06Zm0-59.18V179.39H867.35v37H708.3V197.88Zm0-59.18V120.21H867.35v37H708.3V138.7Zm0-61V59.18H867.35V98H708.3V77.67Zm0-57.33V0H867.35V40.69H708.3V20.34Z"/><path id="path57" class="cls-1" d="M353.23,257.06V238.57h159v37h-159Zm0-59.18V179.39h159v37h-159Zm0-59.18V120.21h159v37h-159Zm0-61V59.18h159V98h-159Z"/><path id="path55" class="cls-1" d="M530.76,257.06V238.57h159v37h-159V257.06Zm0-59.18V179.39h159v37h-159V197.88Z"/><path id="path53" class="cls-1" d="M177.54,434.6V416.1H332.88v37H177.54Zm0-61V355.08H332.88v37H177.54Zm0-59.18V295.9H332.88v37H177.54Z"/><path id="path51" class="cls-1" d="M0,257.06V238.57H155.35v37H0Zm0-59.18V179.39H155.35v37H0Z"/><path id="path49" class="cls-1" d="M710.15,434.6V416.1H865.5v37H710.15Zm0-61V355.08H865.5v37H710.15Zm0-59.18V295.9H865.5v37H710.15Z"/><path id="path47" class="cls-1" d="M532.61,434.6V416.1H688v37H532.61V434.6Zm0-61V355.08H688v37H532.61V373.57Zm0-59.18V295.9H688v37H532.61V314.39Z"/><path id="path45" class="cls-1" d="M355.08,434.6V416.1H510.42v37H355.08Zm0-61V355.08H510.42v37H355.08Zm0-59.18V295.9H510.42v37H355.08Z"/><path id="path43" class="cls-1" d="M0,434.6V416.1H155.35v37H0Zm0-61V355.08H155.35v37H0Zm0-59.18V295.9H155.35v37H0Z"/></g></g></svg>