<svg xmlns="http://www.w3.org/2000/svg" viewBox="0 0 475.54 475.53"><defs><style>.cls-1{fill:#fff;}</style></defs><title>Asset 16</title><g id="Layer_2" data-name="Layer 2"><g id="Layer_1-2" data-name="Layer 1"><path class="cls-1" d="M237.78,0C106.47,0,0,106.43,0,237.77S106.47,475.53,237.78,475.53,475.54,369.05,475.54,237.77,369.09,0,237.78,0Zm-44,343.19h0c-27.43,0-54.81-9.06-75.84-27.23-25.85-22.32-41.19-52.7-43.21-85.54a117.41,117.41,0,0,1,30.57-86.48c24.31-26.83,67.92-68.54,69.76-70.3A29.62,29.62,0,0,1,216,116.47c-.44.42-43.9,42-66.81,67.25a58.61,58.61,0,0,0-15.31,43.08c1,16.79,9.11,32.52,22.79,44.34,18,15.55,53.47,19,75.67-.91,13.2-11.86,29.23-29.26,29.4-29.43a29.63,29.63,0,0,1,43.61,40.11c-.74.76-18.13,19.63-33.49,33.42C250.47,333.53,222.11,343.19,193.79,343.19Zm179.11-2.11c-24.33,26.81-67.94,68.5-69.78,70.3a29.62,29.62,0,0,1-40.94-42.83c.44-.44,43.93-42,66.82-67.3a58.45,58.45,0,0,0,15.3-43.08c-1-16.77-9.11-32.49-22.79-44.3-18-15.52-53.46-19-75.65.93-13.21,11.83-29.23,29.23-29.39,29.42a29.63,29.63,0,0,1-43.63-40.09c.74-.81,18.11-19.69,33.48-33.46,42.15-37.79,111.2-38.54,153.92-1.64,25.86,22.33,41.2,52.72,43.21,85.55A117.4,117.4,0,0,1,372.9,341.08Z"/></g></g></svg>