<svg xmlns="http://www.w3.org/2000/svg" viewBox="0 0 1017.99 442.11"><defs><style>.cls-1{fill:#fff;}</style></defs><title>Asset 8</title><g id="Layer_2" data-name="Layer 2"><g id="Layer_1-2" data-name="Layer 1"><path class="cls-1" d="M11.53,264.41a4.22,4.22,0,0,0-4.09,4L0,325l7.44,55.57a4.2,4.2,0,0,0,4.09,4,4.25,4.25,0,0,0,4.06-3.95h0l8.82-55.6-8.82-56.55a4.28,4.28,0,0,0-4.06-4Zm41.86-30.89a4.24,4.24,0,0,0-8.47,0s-10,91.43-10,91.43l10,89.4a4.23,4.23,0,0,0,8.46,0L64.77,325,53.39,233.52Zm157.7-84.33a7.85,7.85,0,0,0-7.7,7.63l-8,168.2,8,108.7a7.7,7.7,0,0,0,15.4,0v0l9-108.72-9-168.2A7.9,7.9,0,0,0,211.09,149.19Zm-81.62,58.46a6.12,6.12,0,0,0-6,5.88l-9,111.45,9,107.82a6,6,0,0,0,12,0L145.64,325l-10.2-111.47A6.15,6.15,0,0,0,129.47,207.65ZM294,441.31a9.56,9.56,0,0,0,9.44-9.36l7.81-106.87-7.8-223.94a9.45,9.45,0,0,0-18.89,0l-6.93,223.92L284.59,432A9.51,9.51,0,0,0,294,441.31Zm169.8.51A13.07,13.07,0,0,0,476.75,429v0l5.45-103.81L476.75,66.51a12.92,12.92,0,0,0-25.84,0L446,325.05c0,.17,4.87,104,4.87,104A13,13,0,0,0,463.83,441.82Zm-85.55-.41a11.25,11.25,0,0,0,11.18-11.13v.07L396.1,325.1,389.45,99.54a11.19,11.19,0,0,0-22.37,0l-5.9,225.57,5.92,105.23a11.19,11.19,0,0,0,11.18,11.07Zm-208.16-1A7,7,0,0,0,177,433.7L186.56,325,177,221.55a6.84,6.84,0,0,0-13.67,0L154.81,325l8.47,108.71A6.93,6.93,0,0,0,170.12,440.42Zm-81-5.95a5.26,5.26,0,0,0,5.1-5L105.05,325,94.26,216.48a5.28,5.28,0,0,0-5.11-5,5.22,5.22,0,0,0-5.1,5L74.54,325l9.51,104.51a5.21,5.21,0,0,0,5.1,5ZM420.89,95.78a12.08,12.08,0,0,0-12.06,12l-5.39,217.33,5.39,104.57a12.06,12.06,0,0,0,24.11-.07v.09l6-104.58-6-217.36a12.09,12.09,0,0,0-12.05-12ZM252.4,441.53A8.74,8.74,0,0,0,261,433l8.41-108L261,118.38a8.58,8.58,0,0,0-17.16,0l-7.44,206.67,7.45,108A8.67,8.67,0,0,0,252.4,441.53Zm93.89-10.19v-.06l7.23-106.19L346.29,93.6a10.31,10.31,0,0,0-20.61,0l-6.42,231.48,6.43,106.25a10.31,10.31,0,0,0,20.61,0v0Zm546.5-239.69a124.85,124.85,0,0,0-48.43,9.73C834.39,88.53,739.76,0,624.33,0a223.75,223.75,0,0,0-80.1,15c-9.45,3.65-12,7.42-12.05,14.72V427.1a15.14,15.14,0,0,0,13.52,14.8c.32,0,344.85.21,347.08.21a125.23,125.23,0,0,0,0-250.46ZM506.58,29.34a13.93,13.93,0,0,0-13.8,13.76l-5.65,282.08,5.66,102.37a13.79,13.79,0,0,0,27.57-.11v.12l6.15-102.38-6.15-282.1a13.92,13.92,0,0,0-13.78-13.74Z"/></g></g></svg>