<svg xmlns="http://www.w3.org/2000/svg" viewBox="0 0 521.78 521.78"><defs><style>.cls-1{fill:#fff;}</style></defs><title>Asset 1</title><g id="Layer_2" data-name="Layer 2"><g id="Layer_1-2" data-name="Layer 1"><path class="cls-1" d="M260.89,0C116.81,0,0,116.8,0,260.89S116.81,521.78,260.89,521.78,521.78,405,521.78,260.89,405,0,260.89,0ZM380.53,376.27a16.24,16.24,0,0,1-22.36,5.41C296.91,344.24,219.8,335.78,129,356.53a16.26,16.26,0,0,1-7.23-31.7c99.38-22.72,184.62-12.94,253.39,29.08a16.27,16.27,0,0,1,5.39,22.37Zm31.93-71a20.35,20.35,0,0,1-28,6.7c-70.11-43.09-177-55.58-260-30.4a20.34,20.34,0,1,1-11.82-38.92c94.74-28.75,212.53-14.82,293.06,34.66a20.33,20.33,0,0,1,6.7,28Zm2.74-74c-84.09-49.94-222.81-54.53-303.09-30.17A24.39,24.39,0,1,1,98,154.41c92.15-28,245.35-22.57,342.16,34.89a24.4,24.4,0,0,1-24.9,42Z"/></g></g></svg>