<svg xmlns="http://www.w3.org/2000/svg" viewBox="0 0 665.21 443.51"><defs><style>.cls-1{fill:#fff;stroke:#010101;stroke-width:0.09px;}</style></defs><title>Asset 12</title><g id="Layer_2" data-name="Layer 2"><g id="Layer_1-2" data-name="Layer 1"><path class="cls-1" d="M332.52,221.92q53.42-53.14,106.64-106.46c1.55-1.55,3.44-2.93,4.3-5-35.94-35.09-71-70.86-106.64-106.12a28.33,28.33,0,0,1-3.44-4.3H332c-36.29,37.49-74.3,73.78-110.42,111.45C258.91,148,295.37,185.28,332.52,221.92Z"/><path class="cls-1" d="M333.72,222.78l-1.54-.69q-54.43,54.69-109,109h0c-.34.68-.68,1.72-1,2.4,24.94,24.6,49.54,49.37,74.3,74.13,12.22,11.7,23.74,24.43,36.29,35.78,8.77-7.74,17-17,25.63-25.28,26.49-26.32,53-53,79.46-79.29,1.9-2.24,4.48-3.79,5.68-6.54Q388.25,277.91,333.72,222.78Z"/><path class="cls-1" d="M221.07,111.67V110.3l-76-76C133.87,22.75,122,12.09,111.51.05h-1.38C76.6,34.45,42.2,68.16,8.31,102.38c-2.75,2.93-6.36,5.34-8.25,9q55.47,55.2,110.76,110.59C147.63,185.28,184.27,148.31,221.07,111.67Z"/><path class="cls-1" d="M661,106.51,577.61,23.09c-7.39-7.74-15.47-14.79-22.35-23h-1.38c-17.89,18.74-36.46,36.63-54.69,55-18.58,18.4-36.81,37.15-55.56,55.38.86,2.41,3.1,3.78,4.82,5.67L554.22,221.92c37.5-36.29,73.62-74,110.94-110.25C664.65,109.44,662.41,108.06,661,106.51Z"/></g></g></svg>