<?xml version="1.0" standalone="no"?>
<!DOCTYPE svg PUBLIC "-//W3C//DTD SVG 20010904//EN"
 "http://www.w3.org/TR/2001/REC-SVG-20010904/DTD/svg10.dtd">
<svg version="1.0" xmlns="http://www.w3.org/2000/svg"
 width="100.000000pt" height="100.000000pt" viewBox="0 0 100.000000 100.000000"
 preserveAspectRatio="xMidYMid meet">
<metadata>
Created by potrace 1.11, written by Peter Selinger 2001-2013
</metadata>
<g transform="translate(0.000000,100.000000) scale(0.100000,-0.100000)"
fill="#000000" stroke="none">
<path d="M0 500 l0 -500 500 0 500 0 0 74 0 74 -46 22 c-56 27 -115 100 -143
175 -12 31 -21 60 -21 65 0 5 -8 13 -17 19 -15 8 -18 23 -17 78 1 59 6 76 38
130 43 73 93 117 159 141 l47 17 0 102 0 103 -500 0 -500 0 0 -500z m610 286
c54 -12 55 -13 58 -51 4 -49 -10 -63 -31 -31 -24 36 -111 53 -162 32 -34 -15
-37 -19 -33 -51 2 -19 1 -35 -3 -35 -4 0 -9 -9 -12 -20 -8 -30 24 -63 100
-103 111 -59 163 -128 163 -219 0 -47 -22 -88 -46 -88 -8 0 -33 -14 -54 -31
-32 -26 -50 -32 -102 -36 -91 -7 -139 13 -156 62 -7 21 -10 40 -8 43 3 2 18
-5 33 -16 42 -29 101 -43 146 -32 41 9 87 44 87 67 0 7 9 21 20 30 47 40 14
91 -105 160 -71 42 -113 80 -134 121 -6 12 -18 22 -26 22 -8 0 -15 6 -15 13
-2 37 -13 94 -22 105 -8 9 -7 11 5 6 10 -3 37 6 63 21 81 47 135 54 234 31z"/>
<path d="M952 713 c-44 -21 -60 -47 -73 -117 -8 -43 -7 -61 2 -72 9 -11 8 -14
-6 -14 -16 0 -17 -9 -13 -88 5 -109 30 -153 111 -197 l27 -16 0 261 c0 143 -3
260 -7 260 -5 0 -23 -8 -41 -17z"/>
</g>
</svg>
